<?xml version="1.0" encoding="UTF-8"?>
<svg id="Layer_1" data-name="Layer 1" xmlns="http://www.w3.org/2000/svg" viewBox="0 0 480 1080">
  <defs>
    <style>
      .cls-1 {
        fill: none;
      }
    </style>
  </defs>
  <g>
    <path d="m357.87,1013.99c-11,0-22-.12-33,.06-4.17.07-6.02-1.2-5.99-5.68.15-22.33.11-44.66.03-66.99-.01-3.7,1.19-5.13,5.1-5.62,5.88-.73,11.62.27,17.42.16,3.14-.06,4.59,1.31,4.54,4.48-.07,4.66-.03,9.33.01,14,.06,5.97.56,6.45,6.69,6.51,4.17.04,8.34.19,12.5-.04,4.24-.23,6.15,1.32,5.92,5.74-.24,4.65.19,9.34-.12,13.99-.3,4.69,1.28,6.73,6.2,6.42,4.98-.32,10,.02,14.99-.08,3.32-.07,4.92,1.23,4.86,4.69-.11,5.83-.14,11.67.01,17.5.1,3.76-1.67,4.93-5.18,4.89-11.33-.1-22.66-.04-34-.03Z"/>
    <path d="m68.14,600.28h66.27c.47,2.49-1.58,3.28-2.73,4.45-8.53,8.65-17.04,17.35-25.82,25.75-3.1,2.97-3.42,4.8-.13,7.93,9.04,8.6,17.75,17.57,26.54,26.43,1.13,1.14,3.21,2.17,2.65,3.9-.63,1.92-2.89,1.15-4.44,1.15-19.31.05-38.63.05-57.94,0-1.56,0-3.81.77-4.46-1.13-.59-1.74,1.5-2.77,2.62-3.91,9.02-9.07,18.49-17.69,27.19-27.1,2.33-2.52,2.52-4.04,0-6.48-8.83-8.59-17.49-17.36-26.17-26.11-1.25-1.26-2.91-2.25-3.59-4.89Z"/>
    <path d="m316,108.42c-4.99,3.32-7.78,7.09-11.16,10.19-1.65,1.51-3.36,3.27-5.47.91-2.04-2.27.27-3.59,1.55-4.94,2.4-2.54,4.94-4.96,7.39-7.46.8-.81,2.09-1.63,1.68-2.86-.54-1.58-2.23-1.15-3.49-1.18-3.83-.07-7.66-.02-11.5-.08-1.73-.03-3.59-.25-3.55-2.54.04-2.27,1.92-2.44,3.63-2.47,4.16-.06,8.33,0,12.49-.1,2.81-.07,3.28-1.34,1.32-3.34-2.79-2.86-5.63-5.68-8.5-8.46-1.28-1.23-2.5-2.33-.84-4.14,1.58-1.74,3.14-1.69,4.68-.04,2.73,2.92,5.4,5.88,8.13,8.8.66.71,1.42,1.62,2.52,1.22,1.15-.41,1.02-1.62,1.04-2.58.06-3.66,0-7.33.09-11,.04-1.82-.05-4.07,2.58-3.98,2.59.09,2.39,2.37,2.43,4.16.08,3.5.02,7,.08,10.5.02,1.12-.22,2.56,1.2,2.97,1.05.31,1.79-.7,2.5-1.39,2.85-2.81,5.66-5.65,8.51-8.46,1.24-1.22,2.56-2.35,4.27-.71,1.79,1.72,1.1,3.35-.42,4.72-3.65,3.3-7.38,6.5-10.65,10.31,5.22,2.08,9.86,1.18,14.42,1.51,1.9.14,4.54-.42,4.62,2.47.08,2.96-2.57,2.51-4.47,2.57-3,.1-6-.06-8.99.07-1.73.08-4.15-.9-4.95,1.15-.66,1.69,1.53,2.72,2.63,3.89,1.93,2.07,4.07,3.95,5.96,6.06,1.4,1.57,4.45,3.08,1.63,5.63-2.57,2.32-4.2-.37-5.78-1.89-2.52-2.42-4.86-5.03-7.32-7.52-.55-.56-1.35-1.36-1.94-1.29-1.23.15-1.18,1.43-1.19,2.4-.06,4.16-.03,8.33-.1,12.49-.03,1.71-.23,3.6-2.5,3.6-2.28,0-2.48-1.88-2.5-3.59-.05-4.81-.02-9.61-.02-15.61Z"/>
  </g>
  <rect class="cls-1" x="0" width="480" height="1080"/>
</svg>