<?xml version="1.0" encoding="UTF-8"?>
<svg id="Layer_1" data-name="Layer 1" xmlns="http://www.w3.org/2000/svg" viewBox="0 0 480 1080">
  <defs>
    <style>
      .cls-1 {
        fill: none;
      }
    </style>
  </defs>
  <g>
    <path d="m336.09,467.08c5.07,0,10.13,0,15.2,0,7.33,0,14.66.19,21.99-.04,5.31-.17,5.79,2.86,5.87,7.03.08,4.21-1.27,6.04-5.72,5.96-10.99-.2-21.99-.09-32.98-.03-1.38,0-3.37-.78-3.98,1.01-.46,1.34,1.24,2.19,2.15,3.1,7.75,7.8,15.43,15.67,23.36,23.28,3.15,3.03,3.12,5.23,0,8.23-3.07,2.95-5.61,4.52-9.15.7-7.47-8.05-15.91-15.17-22.91-23.69-.79-.96-1.59-2.63-3.05-2.1-1.52.55-.88,2.33-.89,3.58-.05,10.66-.01,21.32-.03,31.98-.01,6.68-.33,6.99-6.54,6.97-6.01-.02-6.3-.34-6.32-7.2-.02-11.16-.02-22.32-.05-33.48,0-.63-.26-1.25-.4-1.84-1.88-.47-2.49.99-3.34,1.87-7.65,7.86-15.21,15.8-22.91,23.61-3.88,3.93-4.96,3.54-9.44-.52-3.77-3.42-2.36-5.71.59-8.57,7.88-7.66,15.59-15.5,23.34-23.3.77-.78,2.17-1.48,1.66-2.79-.53-1.34-2.03-.86-3.12-.87-11.16-.04-22.32-.18-33.48.04-4.59.09-6.18-1.58-6.07-6.13.1-4.32.89-6.97,6.05-6.88,12.27.21,24.55.07,37.93.07-5.45-5.67-10.22-10.8-15.19-15.75-3.88-3.87-7.88-7.63-12.05-11.18-2.95-2.5-2.85-4.54,0-6.86.9-.73,1.78-1.55,2.46-2.47,2.24-3.04,4.14-2.24,6.43.1,7.33,7.51,14.77,14.91,22.26,22.26,1.33,1.31,2.5,4.09,4.51,3.14,1.81-.86.78-3.65.79-5.57.08-9.99.19-19.99-.02-29.98-.1-4.91,2.4-5.76,6.54-5.78,4.26-.02,6.54,1.09,6.44,5.89-.21,10.66-.08,21.32-.03,31.98,0,1.25-.61,3,.85,3.62,1.48.63,2.26-1.07,3.14-1.94,7.92-7.86,15.88-15.69,23.67-23.68,5.22-5.36,6.52,1.12,9.18,2.96,3.23,2.23,1.63,3.91-.76,6.15-9.01,8.47-17.71,17.29-26.52,25.97.19.38.37.76.56,1.14Z"/>
    <path d="m118.83,92.9c-8.7-3-15.8-6.21-20.82-13.11-4.09-5.62-5.47-12.04-7.15-18.45-.59-2.27.83-3.03,2.72-3.15,1.99-.13,3.99-.11,5.99-.11,18.31,0,36.62-.03,54.93.01,6.06.01,7.65,1.86,5.88,7.65-3.93,12.84-11.51,22.38-25,26.18-.75.21-1.69.08-2.14,1.41,4.13,1.87,8.61,3,12.42,5.72,7.99,5.69,12.96,13.26,14.95,22.78,1.13,5.4.03,6.32-5.36,6.35-11.11.06-22.24,1-33.3.39-9.32-.52-18.56.37-27.83,0-2.99-.12-3.34-1.58-2.91-4.33,2.33-14.82,10.07-25.03,24.56-29.74.74-.24,1.4-.72,3.06-1.59Z"/>
    <path d="m315.32,759.2c-9.51-2.65-16.71-8.1-20.39-17.49-.84-2.15-1.33-4.45-1.92-6.69-.71-2.69.15-4.1,3.15-4.1,16.83.05,33.65.06,50.48,0,4.5-.01,4.9,2.82,4.18,6.06-2.19,9.76-7.89,16.72-17.18,20.61-1.52.64-3.12,1.11-5.13,1.81,3.53,1.9,6.91,3.41,9.97,5.41,7.22,4.72,11.55,11.41,12.49,20.07.23,2.14.43,4.41-3.04,4.4-16.91-.04-33.81-.07-50.72.18-4.24.06-4.84-1.76-4.18-5.17,2.22-11.46,9.22-18.86,19.7-23.34.87-.37,2.03-.32,2.58-1.75Z"/>
  </g>
  <rect class="cls-1" x="0" width="480" height="1080"/>
</svg>