<?xml version="1.0" encoding="UTF-8"?>
<svg id="Layer_1" data-name="Layer 1" xmlns="http://www.w3.org/2000/svg" viewBox="0 0 480 1080">
  <defs>
    <style>
      .cls-1 {
        fill: none;
      }
    </style>
  </defs>
  <g>
    <path d="m213.98,355.98c-15.45,1-27.27-5.26-37.55-14.89-3.15-2.95-5.18-3.14-8.16.06-12.74,13.66-29.23,16.89-46.63,14.49-11.44-1.57-20.49-11.17-21.62-24.15-1.29-14.83,5.14-24.86,18.57-30.74,2.25-.99,1.94-2.16-.13-2.89-4.9-1.72-8.34-5.3-11.92-8.82-7.9-7.78-7.97-17.55-5.56-26.95,3.61-14.1,15.16-20.74,28.28-21.14,13.04-.39,25.75,4.08,36.14,13.04.25.22.47.47.73.69,8.04,6.77,6.05,5.69,12.66.32,8.81-7.15,18.63-12.04,30.51-13.36,6.8-.76,12.71-.07,18.64,2.34,7.74,3.15,12.74,9.13,15.97,16.78,4.41,10.46.4,19.5-4.77,28.21-2.72,4.58-7.81,6.49-12.31,8.94-.7.38-1.8.33-1.77,1.42.02.98.91,1.26,1.74,1.48,12.56,3.4,16.65,13.77,18.91,24.66,1.56,7.54-4.23,22.36-14.28,27.04-6.1,2.84-11.87,3.75-17.43,3.46Z"/>
    <path d="m85.08,798.05c4.21,1.66,9.43,2.2,14.81,1.96,3.78-.17,5.24-1.82,6.35-5.52,1.62-5.42.86-11.28,3.49-16.42,2.26-4.41,4.89-5.15,8.65-1.92,3.53,3.03,6.66,6.52,10.02,9.76,4.41,4.26,8.72,4.28,13.09.06,3.23-3.13,6.25-6.49,9.62-9.46,4.18-3.68,6.89-3.01,9.29,1.94,2.23,4.61,2.19,9.69,2.61,14.61.4,4.74,2.6,6.99,7.29,6.9,4.3-.08,8.55.28,12.78-1.47,2.95-1.22,6.42-.98,8.77,1.77,2.17,2.54,1.11,5.3-.2,7.94-1.56,3.12-3.06,6.27-4.6,9.4-2.88,5.88-1.59,10.26,4.16,13.31,3.83,2.03,7.77,3.82,11.26,6.43,4.49,3.35,4.42,5.74.44,9.56-2.91,2.79-6.69,3.64-10,5.49-8.12,4.53-9.14,7.99-4.78,16.11,1.57,2.93,3.03,5.95,4.24,9.04.92,2.34,1.48,5.04-.65,7-2.15,1.98-4.98,3.29-7.82,1.95-4.66-2.19-9.49-1.35-14.27-1.42-4.25-.06-6.27,2.3-6.59,6.51-.36,4.79-.49,9.68-2.31,14.19-2.26,5.57-4.03,6.26-8.95,2.8-3.63-2.56-6.64-6.01-9.87-9.14-5.37-5.2-8.5-5.13-13.99.04-3.61,3.4-6.51,7.56-11.13,9.92-3.21,1.63-5.29,1.03-6.94-2.12-1.28-2.43-2.11-4.9-1.84-7.65.41-4.15-1.92-7.69-2.51-11.63-.23-1.53-1.66-2.63-3.26-2.71-4.96-.25-10.04-1.23-14.81.77-4.14,1.74-7.88.85-10.46-2.17-2.41-2.83-.14-5.91,1.48-8.69,1.5-2.59,2.84-5.28,4.14-7.98,3.47-7.26,2.13-10.93-5.27-14.21-4.11-1.82-8.21-3.43-11.56-6.71-3.05-2.99-2.65-5.18.21-7.91,2.61-2.49,5.7-4,8.88-5.44,1.21-.55,2.53-.89,3.69-1.54,6.37-3.57,7.38-6.74,4.25-13.32-1.65-3.46-3.42-6.85-5.08-10.3-2.97-6.17-.49-9.89,7.37-9.76Z"/>
  </g>
  <rect class="cls-1" x="0" width="480" height="1080"/>
</svg>